<svg height="511pt" viewBox="-16 0 511 511.998" width="511pt" xmlns="http://www.w3.org/2000/svg"><path d="m280.546875 151.789062h-47.335937l-22.296876 327.027344c-.945312 13.890625 10.066407 25.683594 23.992188 25.683594h43.945312c13.921876 0 24.9375-11.792969 23.992188-25.683594zm0 0" fill="#f9eac7"/><path d="m270.160156 175.839844h12.023438l-1.640625-24.050782h-47.332031l-22.296876 327.027344c-.898437 13.167969 8.988282 24.320313 21.875 25.460938l21.375-313.496094c.574219-8.414062 7.566407-14.941406 15.996094-14.941406zm0 0" fill="#f4dbb3"/><path d="m256.496094 7.5c-110.753906 0-202.214844 54.667969-216.15625 125.457031-1.929688 9.808594 6.398437 18.832031 17.242187 18.832031h397.828125c10.847656 0 19.175782-9.023437 17.242188-18.832031-13.941406-70.789062-105.402344-125.457031-216.15625-125.457031zm0 0" fill="#ffa95f"/><path d="m128.898438 132.957031c12.03125-61.082031 81.824218-110.070312 171.878906-122.382812-14.316406-1.957031-29.089844-3.074219-44.28125-3.074219-110.753906 0-202.214844 54.667969-216.15625 125.457031-1.929688 9.808594 6.398437 18.832031 17.242187 18.832031h88.558594c-10.84375 0-19.171875-9.023437-17.242187-18.832031zm0 0" fill="#ff8b5a"/><path d="m228.777344 482.582031-76.546875-194.515625-28.105469 8.882813 45.90625 189.144531c2.617188 10.777344 12.265625 18.371094 23.355469 18.378906l20.460937.011719c11.308594.007813 19.070313-11.378906 14.929688-21.902344zm0 0" fill="#f9eac7"/><path d="m461.183594 102.441406c-8.054688 4.378906-15.191406 9.269532-31.128906 9.269532-28.859376 0-28.859376-16.03125-57.71875-16.03125-28.859376 0-28.859376 16.03125-57.71875 16.03125-28.867188 0-28.867188-16.03125-57.730469-16.03125h-.46875c-28.867188 0-28.867188 16.03125-57.734375 16.03125-28.859375 0-28.859375-16.03125-57.71875-16.03125s-28.859375 16.03125-57.71875 16.03125c-16.089844 0-23.210938-4.984376-31.363282-9.394532-5.402343 9.785156-9.445312 20-11.542968 30.644532-1.929688 9.808593 6.398437 18.828124 17.242187 18.828124h397.832031c10.84375 0 19.171876-9.019531 17.238282-18.828124-2.085938-10.601563-6.101563-20.773438-11.46875-30.519532zm0 0" fill="#ffc269"/><path d="m128.898438 132.957031c2.570312-13.035156 7.90625-25.46875 15.371093-37.164062-1.082031-.050781-2.132812-.117188-3.304687-.117188-28.859375 0-28.859375 16.035157-57.71875 16.035157-16.089844 0-23.214844-4.984376-31.367188-9.394532-5.402344 9.78125-9.441406 20-11.539062 30.640625-1.933594 9.808594 6.394531 18.832031 17.238281 18.832031h88.5625c-10.84375 0-19.171875-9.023437-17.242187-18.832031zm0 0" fill="#ffa95f"/><path d="m156.941406 303.960938 1.375-.4375-6.085937-15.460938-28.105469 8.886719 45.90625 189.144531c2.359375 9.714844 10.445312 16.785156 20.136719 18.101562l-43.972657-181.167968c-1.988281-8.191406 2.707032-16.527344 10.746094-19.066406zm0 0" fill="#f4dbb3"/><path d="m112.679688 207.921875c-65.199219 20.609375-108.871094 69.808594-103.90625 114.078125.6875 6.132812 7.269531 9.894531 13.652343 7.878906l234.203125-74.023437c6.382813-2.019531 9.609375-8.878907 6.644532-14.296875-21.378907-39.078125-85.394532-54.242188-150.59375-33.636719zm0 0" fill="#e2a975"/><path d="m60.90625 305.519531c-4.285156-38.195312 27.691406-80.023437 78.414062-104.027343-8.792968 1.511718-17.699218 3.605468-26.640624 6.429687-65.199219 20.609375-108.871094 69.808594-103.90625 114.078125.6875 6.132812 7.269531 9.894531 13.652343 7.878906l52.132813-16.480468c-6.382813 2.019531-12.964844-1.742188-13.652344-7.878907zm0 0" fill="#d19a6e"/><path d="m250.84375 225.730469c-3.925781 4.074219-7.21875 8.28125-16.601562 11.246093-16.988282 5.371094-19.972657-4.066406-36.960938 1.300782-16.992188 5.371094-14.007812 14.808594-30.996094 20.179687-16.996094 5.371094-19.976562-4.066406-36.972656 1.304688l-.277344.085937c-16.992187 5.371094-14.007812 14.808594-31.003906 20.179688-16.988281 5.371094-19.972656-4.066406-36.960938 1.300781-16.988281 5.371094-14.007812 14.808594-30.996093 20.179687-9.472657 2.992188-14.59375 1.386719-20.210938.304688-1.359375 6.765625-1.839843 13.53125-1.09375 20.1875.6875 6.132812 7.269531 9.894531 13.652344 7.878906l234.207031-74.023437c6.382813-2.019531 9.605469-8.878907 6.644532-14.296875-3.199219-5.847656-7.457032-11.089844-12.429688-15.828125zm0 0" fill="#ecbd83"/><path d="m60.90625 305.519531c-.914062-8.148437-.085938-16.464843 2.132812-24.738281-.644531.171875-1.277343.328125-1.964843.546875-16.988281 5.371094-14.007813 14.808594-30.996094 20.179687-9.472656 2.992188-14.59375 1.386719-20.214844.304688-1.359375 6.765625-1.835937 13.53125-1.089843 20.1875.6875 6.132812 7.269531 9.894531 13.652343 7.878906l52.132813-16.480468c-6.382813 2.019531-12.964844-1.742188-13.652344-7.878907zm0 0" fill="#e2a975"/><path d="m480.011719 131.507812c-7.203125-36.578124-33.960938-70.066406-75.34375-94.296874-40.980469-23.996094-93.601563-37.210938-148.171875-37.210938-54.570313 0-107.191406 13.214844-148.171875 37.210938-41.382813 24.230468-68.136719 57.71875-75.34375 94.296874-1.289063 6.554688.460937 13.34375 4.804687 18.625 4.785156 5.820313 12 9.15625 19.796875 9.15625h166.839844l-2.816406 41.277344c-5.464844-2.085937-11.261719-3.839844-17.359375-5.226562-28.878906-6.566406-62.609375-4.542969-94.984375 5.691406s-61.140625 27.972656-80.996094 49.941406c-20.273437 22.429688-29.984375 47.753906-27.339844 71.296875.554688 4.9375 3.304688 9.347657 7.550781 12.109375 2.972657 1.933594 6.417969 2.925782 9.941407 2.925782 1.921875 0 3.871093-.296876 5.773437-.898438l94.539063-29.886719 44.011719 181.339844c3.445312 14.1875 16.042968 24.097656 30.640624 24.109375l20.460938.011719h.015625c3.265625 0 6.4375-.679688 9.34375-1.941407 3.488281 1.285157 7.203125 1.957032 10.941406 1.957032h44.703125c8.710938 0 17.113282-3.648438 23.054688-10.011719 5.945312-6.363281 9.015625-14.996094 8.421875-23.679687l-21.75-319.015626h166.835937c7.800782 0 15.015625-3.339843 19.796875-9.15625 4.34375-5.28125 6.097657-12.070312 4.804688-18.625zm-460.339844 190.597657c-1.074219.339843-2.207031.226562-3.019531-.300781-.738282-.480469-.800782-1.027344-.820313-1.207032-.445312-3.964844-.445312-7.976562-.039062-11.996094 2.074219.386719 4.375.703126 7.019531.703126 2.605469 0 5.542969-.304688 8.90625-1.140626 4.019531-.996093 6.46875-5.0625 5.472656-9.082031-.996094-4.023437-5.066406-6.472656-9.085937-5.476562-3.746094.929687-6.320313.820312-9.046875.34375 11.113281-32.484375 47.265625-63.613281 94.722656-78.613281 47.453125-15.003907 94.921875-10.3125 122.691406 9.871093-2.296875 2.292969-4.75 4.097657-9.613281 5.632813-6.308594 1.996094-9.554687 1.292968-14.046875.324218-5.183594-1.121093-11.632812-2.511718-21.738281.683594-10.097657 3.191406-14.570313 8.039063-18.167969 11.929688-3.113281 3.375-5.367188 5.816406-11.667969 7.808594-6.292969 1.988281-9.53125 1.285156-14.015625.316406-5.179687-1.121094-11.621094-2.515625-21.714844.671875-10.097656 3.191406-14.570312 8.039062-18.164062 11.933593-3.117188 3.375-5.367188 5.8125-11.664062 7.800782-6.292969 1.992187-9.539063 1.289062-14.023438.320312-5.179688-1.121094-11.625-2.515625-21.71875.675782-2.632812.832031-4.960938 1.789062-7.117188 2.929687-3.664062 1.9375-5.0625 6.476563-3.125 10.136719 1.34375 2.542968 3.945313 3.996094 6.636719 3.996094 1.179688 0 2.382813-.28125 3.5-.871094 1.351563-.714844 2.863281-1.332032 4.628907-1.890625 6.292968-1.992188 9.535156-1.289063 14.023437-.316407 5.175781 1.121094 11.621094 2.515626 21.714844-.675781 10.097656-3.191406 14.570312-8.039062 18.164062-11.933593 3.117188-3.375 5.367188-5.8125 11.664063-7.800782 6.292968-1.988281 9.535156-1.289062 14.019531-.316406 5.175781 1.121094 11.621094 2.515625 21.714844-.675781 10.097656-3.191407 14.570312-8.039063 18.167969-11.933594 3.113281-3.375 5.367187-5.8125 11.667968-7.804687 6.304688-1.992188 9.554688-1.292969 14.046875-.324219 5.183594 1.121093 11.632813 2.511719 21.734375-.679688 8.34375-2.636719 12.84375-6.402343 16.1875-9.824219 2.648438 3.058594 4.953125 6.339844 6.871094 9.84375.085938.160157.351562.640626.023438 1.457032-.363282.902344-1.222657 1.644531-2.300782 1.984375zm142.480469-29.3125 54.335937-17.175781-9.019531 132.324218zm51.699218 204.191406-20.460937-.015625c-7.65625-.003906-14.265625-5.203125-16.070313-12.644531l-44.253906-182.335938 14.75-4.660156 73.984375 188c1.046875 2.667969.722657 5.558594-.890625 7.929687-1.613281 2.371094-4.183594 3.726563-7.050781 3.726563 0 0-.003906 0-.007813 0zm81.507813-17.660156c.316406 4.625-1.253906 9.035156-4.417969 12.421875-3.164062 3.390625-7.457031 5.253906-12.089844 5.253906h-43.074218c2.128906-5.460938 2.175781-11.585938-.019532-17.164062l-15.476562-39.332032 11.574219-169.746094 24.828125-7.847656c5.386718-1.703125 9.652344-5.601562 11.699218-10.695312 1.886719-4.695313 1.601563-9.890625-.785156-14.246094-6.792968-12.421875-17.5625-22.820312-31.421875-30.613281l3.277344-48.066407h34.085937zm168.261719-338.714844c-1.894532 2.304687-4.964844 3.679687-8.207032 3.679687h-397.832031c-3.246093 0-6.316406-1.375-8.210937-3.679687-.871094-1.058594-2.25-3.273437-1.671875-6.203125 1.65625-8.402344 4.480469-16.550781 8.351562-24.382812.105469.0625.210938.121093.316407.183593 7.386718 4.21875 15.753906 9.003907 31.769531 9.003907s24.382812-4.785157 31.765625-9.003907c6.597656-3.773437 12.292968-7.027343 24.324218-7.027343s17.726563 3.253906 24.324219 7.027343c7.382813 4.21875 15.75 9.003907 31.765625 9.003907 16.019532 0 24.390625-4.785157 31.777344-9.003907 6.597656-3.769531 12.296875-7.027343 24.332031-7.027343 12.023438 0 17.71875 3.253906 24.3125 7.027343 7.382813 4.21875 15.75 9.003907 31.761719 9.003907 16.019531 0 24.394531-4.785157 31.78125-9.003907 6.601562-3.769531 12.304688-7.027343 24.339844-7.027343 2.757812 0 5.347656.175781 7.691406.523437 4.097656.613281 7.914062-2.214844 8.523438-6.3125.609374-4.097656-2.21875-7.914063-6.316407-8.523437-3.117187-.460938-6.355469-.6875-9.898437-.6875-16.019532 0-24.394532 4.785156-31.78125 9.003906-6.601563 3.769531-12.300782 7.027344-24.34375 7.027344-12.023438 0-17.71875-3.253907-24.3125-7.027344-7.382813-4.21875-15.75-9.003906-31.761719-9.003906-16.019531 0-24.386719 4.785156-31.773437 9.003906-6.597657 3.769531-12.296876 7.027344-24.332032 7.027344-12.03125 0-17.726562-3.253907-24.324218-7.027344-7.382813-4.21875-15.75-9.003906-31.765626-9.003906-16.015624 0-24.386718 4.785156-31.769531 9.003906-6.597656 3.773437-12.292969 7.027344-24.324219 7.027344-12.027343 0-17.726562-3.253907-24.320312-7.027344-.070312-.039063-.140625-.078125-.207031-.117188 32.804687-48.65625 107.679687-82.066406 192.890625-82.066406 85.203125 0 160.074218 33.40625 192.882812 82.050781-.078125.042969-.152344.085938-.230468.128907-6.605469 3.769531-12.3125 7.03125-24.363282 7.03125-5.976562 0-10.847656-.792969-15.332031-2.496094-3.871094-1.46875-8.203125.480468-9.671875 4.351562-1.46875 3.875.480469 8.203125 4.351562 9.675782 6.238282 2.363281 12.800782 3.46875 20.652344 3.46875 16.03125 0 24.410156-4.785157 31.800782-9.003907.121093-.070312.234374-.132812.351562-.199219 3.875 7.835938 6.699219 15.988282 8.355469 24.398438.578125 2.925781-.800781 5.140625-1.671875 6.203125zm0 0"/></svg>