<svg id="Capa_1" enable-background="new 0 0 512 512" height="512" viewBox="0 0 512 512" width="512" xmlns="http://www.w3.org/2000/svg"><g><g><g><g><g><g><g><circle cx="256" cy="256" fill="#ffce00" r="256"/></g></g></g></g></g></g><path d="m512 256c0-16.943-1.646-33.501-4.787-49.523l-109.226-109.227-.059 58.4-226.097 288.009 67.828 67.828c5.404.34 10.852.513 16.341.513 141.385 0 256-114.615 256-256z" fill="#ffa300"/><g><path d="m340.169 443.659h-168.338c-22.579-22.579-35.239-35.239-57.818-57.818v-259.681c22.579-22.579 35.239-35.239 57.818-57.818h168.337c22.579 22.579 35.239 35.239 57.818 57.818v259.681c-22.578 22.579-35.238 35.238-57.817 57.818z" fill="#ff432e"/></g><g><path d="m340.169 68.341h-84.351v375.317h84.351l57.818-57.818v-259.681c-22.58-22.579-35.239-35.238-57.818-57.818z" fill="#db0404"/></g><g><g><path d="m171.831 126.159h168.337v259.681h-168.337z" fill="none"/></g><g><path d="m171.831 385.841h168.337v57.818h-168.337z" fill="#ff6c52"/></g><g><path d="m255.818 385.841h84.351v57.818h-84.351z" fill="#ff432e"/></g><g><path d="m171.831 68.341h168.337v57.818h-168.337z" fill="#ff6c52"/></g><g><path d="m255.818 68.341h84.351v57.818h-84.351z" fill="#ff432e"/></g><g><path d="m340.169 126.159h57.818v259.681h-57.818z" fill="#ff432e"/></g><g><path d="m340.169 443.659 57.818-57.818h-57.818z" fill="#ff583e"/></g><g><path d="m397.987 126.159c-22.579-22.579-35.239-35.239-57.818-57.818v57.818z" fill="#ff583e"/></g><g><path d="m114.013 126.159h57.818v259.681h-57.818z" fill="#ff6c52"/></g><g><path d="m114.013 385.841c22.579 22.579 35.239 35.239 57.818 57.818v-57.818z" fill="#ff8870"/></g><g><path d="m171.831 68.341c-22.579 22.579-35.239 35.239-57.818 57.818h57.818z" fill="#ff8870"/></g></g><g><path d="m397.987 223.836c-20.726-55.958-7.334-42.566-63.293-63.293 55.958-20.727 42.566-7.335 63.293-63.293 20.727 55.958 7.335 42.566 63.293 63.293-55.959 20.727-42.567 7.335-63.293 63.293z" fill="#fff"/></g></g></svg>