<?xml version="1.0" encoding="iso-8859-1"?>
<!-- Generator: Adobe Illustrator 21.0.0, SVG Export Plug-In . SVG Version: 6.00 Build 0)  -->
<svg xmlns="http://www.w3.org/2000/svg" xmlns:xlink="http://www.w3.org/1999/xlink" version="1.1" id="Capa_1" x="0px" y="0px" viewBox="0 0 512 512" style="enable-background:new 0 0 512 512;" xml:space="preserve" width="512" height="512">
<g>
	<path style="fill:#AD7A65;" d="M482.574,426.827H29.426c-12.11,0-21.926-9.817-21.926-21.926v0c0-12.11,9.817-21.926,21.926-21.926   h453.147c12.11,0,21.926,9.817,21.926,21.926v0C504.5,417.011,494.683,426.827,482.574,426.827z"/>
	<path style="fill:#9C6E5B;" d="M482.574,382.975h-26.5c12.11,0,21.926,9.817,21.926,21.926c0,12.11-9.817,21.927-21.926,21.927   h26.5c12.11,0,21.926-9.817,21.926-21.927C504.5,392.791,494.683,382.975,482.574,382.975z"/>
	<polygon style="fill:#787780;" points="492.738,85.173 175.254,123.319 270,177.886  "/>
	<polygon style="fill:#67666E;" points="410.219,95.087 245.374,163.704 270,177.886 492.738,85.173  "/>
	<polygon style="fill:#787780;" points="270,177.886 175.254,123.319 19.262,267.948 161,267.948  "/>
	<polygon style="fill:#67666E;" points="175.254,123.319 162.636,135.018 237.069,177.886 128.069,267.948 161,267.948 270,177.886     "/>
	<polygon style="fill:#787780;" points="270,177.886 349.238,382.975 492.738,85.173  "/>
	<polygon style="fill:#67666E;" points="456.567,100.228 336.371,349.67 349.238,382.975 492.738,85.173  "/>
	<polygon style="fill:#787780;" points="161,267.948 221,382.975 349.238,382.975 270,177.886  "/>
	<polygon style="fill:#67666E;" points="270,177.886 250.292,194.171 323.238,382.975 349.238,382.975  "/>
	<polygon style="fill:#787780;" points="19.262,267.948 71.759,382.975 221,382.975 161,267.948  "/>
	<polygon style="fill:#67666E;" points="161,267.948 136.28,267.948 196.28,382.975 221,382.975  "/>
	<path d="M482.573,375.468H361.178l50.935-105.704c1.798-3.731,0.23-8.214-3.501-10.012c-3.734-1.8-8.215-0.23-10.013,3.5   l-48.604,100.866c-3.285-8.501-66.597-172.368-70.366-182.124c9.815-4.086,186.921-77.805,197.797-82.332l-65.952,136.868   c-1.798,3.731-0.23,8.214,3.501,10.012c3.73,1.797,8.213,0.231,10.013-3.5c80.628-167.339,75.273-155.275,75.242-158.004   c-0.061-3.49-2.526-6.892-7.042-7.36c-0.823-0.049-319.065,38.066-320.581,38.64c-2.264,0.855,3.486-3.957-89.377,82.085   c-3.037,2.816-3.217,7.562-0.4,10.599c2.817,3.038,7.561,3.218,10.6,0.401l82.87-76.834l80.589,46.414   c-2.85,2.355-95.913,79.249-98.586,81.458H38.383l34.5-31.986c3.037-2.816,3.217-7.562,0.4-10.599   c-2.817-3.038-7.561-3.217-10.6-0.401c-53.165,49.296-49.426,45.479-50.309,47.552c-2.455,5.769-0.311,3.229,47.718,110.461H29.427   C13.201,375.468,0,388.669,0,404.894c0,16.226,13.201,29.427,29.427,29.427h0.335c4.143,0,7.5-3.358,7.5-7.5s-3.357-7.5-7.5-7.5   h-0.335c-7.955,0-14.427-6.472-14.427-14.427c0-7.955,6.472-14.426,14.427-14.426c26.709,0,428.088,0,453.146,0   c7.955,0,14.427,6.472,14.427,14.426c0,7.955-6.472,14.427-14.427,14.427H57.762c-4.143,0-7.5,3.358-7.5,7.5s3.357,7.5,7.5,7.5   h424.812c16.226,0,29.427-13.201,29.427-29.427C512,388.669,498.799,375.468,482.573,375.468z M439.789,99.082l-169.254,70.451   l-71.995-41.464L439.789,99.082z M76.581,375.468L30.929,275.441h125.524l52.176,100.027H76.581z M225.547,375.468l-55.089-105.612   l96.297-79.565c3.745,9.694,67.969,175.922,71.545,185.177H225.547z"/>
</g>















</svg>
